<svg width="604" height="593" viewBox="0 0 604 593" fill="none" xmlns="http://www.w3.org/2000/svg">
<path d="M301.921 592.01C468.668 592.01 603.842 459.623 603.842 296.316C603.842 133.009 468.668 0.621826 301.921 0.621826C135.175 0.621826 0 133.009 0 296.316C0 459.623 135.175 592.01 301.921 592.01Z" fill="white"/>
<path d="M301.926 494.161C413.687 494.161 504.288 405.399 504.288 295.904C504.288 186.41 413.687 97.647 301.926 97.647C190.164 97.647 99.5639 186.41 99.5639 295.904C99.5639 405.399 190.164 494.161 301.926 494.161Z" fill="#FDB515"/>
<path d="M435.853 276.419C448.017 247.421 439.16 216.383 416.071 207.093C392.982 197.803 364.404 213.78 352.24 242.779C340.076 271.777 348.933 302.815 372.022 312.105C395.112 321.395 423.69 305.418 435.853 276.419Z" fill="white"/>
<path d="M302.408 541.672C334.457 541.672 360.437 514.125 360.437 480.144C360.437 446.163 334.457 418.616 302.408 418.616C270.359 418.616 244.379 446.163 244.379 480.144C244.379 514.125 270.359 541.672 302.408 541.672Z" fill="white"/>
<path d="M233.787 312.072C256.877 302.782 265.734 271.744 253.57 242.746C241.406 213.747 212.828 197.77 189.739 207.06C166.65 216.35 157.793 247.388 169.956 276.386C182.12 305.385 210.698 321.362 233.787 312.072Z" fill="white"/>
<path d="M404.792 486.636C467.405 453.766 511.826 391.892 519.229 319.315L554.272 358.746C534.741 436.571 478.616 500.378 404.863 531.66C405.568 525.445 405.921 518.47 405.921 510.529C405.85 502.519 405.498 494.508 404.792 486.636ZM231.339 500.723C253.409 508.043 276.959 511.979 301.567 511.979C327.232 511.979 351.769 507.698 374.685 499.756C369.89 518.47 362.416 534.836 352.898 547.681C336.328 550.926 319.194 552.653 301.637 552.653C285.138 552.653 269.062 551.133 253.409 548.302C243.749 535.527 236.205 519.23 231.339 500.723ZM199.54 487.257C135.94 454.387 90.8847 391.685 83.7633 318.141L49.5662 361.715C69.8729 438.712 126.069 501.552 199.54 532.281C198.835 525.928 198.482 518.746 198.482 510.598C198.482 502.726 198.835 494.922 199.54 487.257ZM477.206 169.949L502.025 135.145C484.398 114.36 463.456 96.2673 439.977 81.8347L398.094 105.383C429.4 120.437 456.546 142.741 477.206 169.949ZM165.977 80.0393C141.44 94.748 119.512 113.324 101.25 134.938L129.242 165.668C149.549 140.255 175.637 119.47 205.533 105.106L165.977 80.0393Z" fill="#333333"/>
<path d="M157.587 296.108C157.587 231.887 201.373 177.679 261.306 160.484C263.986 153.095 267.37 146.673 271.178 141.425C197.002 155.443 141.017 219.388 141.017 296.108C141.017 350.454 169.08 398.379 211.809 426.691C213.713 421.305 215.757 416.126 218.014 411.085C181.419 385.465 157.587 343.48 157.587 296.108Z" fill="#333333"/>
<path d="M185.993 248.876L198.191 251.983C209.191 227.124 229.145 206.959 254.176 195.565C254.528 190.801 255.022 186.105 255.797 181.616C224.28 193.839 199.037 218.215 185.993 248.876Z" fill="#333333"/>
<path d="M190.384 313.581H177.833C182.698 346.451 200.749 375.109 226.626 394.168C228.741 390.578 230.927 387.125 233.253 383.81C210.832 366.961 195.108 342.101 190.384 313.581Z" fill="#333333"/>
<path d="M405.853 252.396L417.981 249.289C403.456 214.692 373.278 187.968 336.049 177.678C336.966 181.96 337.741 186.448 338.305 191.144C368.766 201.226 393.303 223.669 405.853 252.396Z" fill="#333333"/>
<path d="M427.504 280.638L414.389 267.379L371.308 274.147L364.68 293.551L384.493 306.533L420.876 293.551L427.504 280.638Z" fill="#333333"/>
<path d="M178.108 280.638L191.152 267.379L234.304 274.147L240.861 293.551L221.048 306.533L184.736 293.551L178.108 280.638Z" fill="#333333"/>
<path d="M421.375 333.331C423.42 326.978 425.042 320.348 426.029 313.581H413.478C412.844 317.379 411.998 321.039 411.01 324.699C414.677 327.599 418.132 330.43 421.375 333.331Z" fill="#333333"/>
<path d="M381.603 374.352C378.359 377.46 374.975 380.498 371.379 383.191C373.706 386.506 375.962 389.959 378.077 393.549C383.647 389.337 388.865 384.71 393.66 379.669C389.711 378.081 385.692 376.286 381.603 374.352Z" fill="#333333"/>
<path d="M446.255 296.114C446.255 314.552 442.589 332.092 436.102 348.251C440.967 353.913 444.633 359.369 447.031 364.272C457.184 343.624 462.895 320.56 462.895 296.114C462.895 214.767 400.001 147.853 319.197 139.428C323.216 144.331 326.812 150.408 329.774 157.383C396.123 170.089 446.255 227.335 446.255 296.114Z" fill="#333333"/>
<path d="M413.184 386.085C405.498 395.201 396.614 403.418 386.884 410.393C389.14 415.365 391.256 420.613 393.089 425.999C408.178 415.848 421.363 403.142 432.151 388.71C426.722 388.779 420.305 387.881 413.184 386.085Z" fill="#333333"/>
<path d="M315.738 276.844C315.597 276.844 315.526 276.775 315.456 276.706L301.918 138.32H289.297L277.733 277.673H277.804C277.804 277.949 277.733 278.226 277.733 278.502C277.804 280.85 278.015 283.059 278.438 285.2C278.65 287.548 279.355 289.965 280.483 292.382C282.88 298.459 286.758 303.016 291.341 305.157C292.399 305.986 293.527 306.745 294.655 307.505C294.867 307.643 295.149 307.781 295.36 307.919V307.988L435.815 383.604L443.148 373.591L315.738 276.844Z" fill="#333333"/>
<path d="M333.653 466.262C322.724 466.262 313.487 458.942 310.808 449.067L362.773 429.593L350.364 399.347L301.924 418.544L253.413 399.416L241.074 429.593L292.546 449.481C289.726 459.149 280.63 466.262 269.842 466.262C269.137 466.262 268.361 466.193 267.656 466.123L257.15 480.556C261.099 481.868 265.329 482.559 269.772 482.559C282.816 482.559 294.379 476.482 301.712 467.021C309.045 476.413 320.609 482.559 333.653 482.559C338.589 482.559 343.242 481.661 347.614 480.073L337.32 465.985C336.121 466.193 334.922 466.262 333.653 466.262Z" fill="#333333"/>
<path d="M463.604 176.638L446.752 195.421C467.341 223.803 479.398 258.468 479.398 295.896C479.398 357.217 446.963 411.149 397.959 442.086C400.145 450.234 401.908 458.728 403.248 467.498C463.604 433.178 504.217 369.164 504.217 295.896C504.358 251.148 489.128 209.853 463.604 176.638Z" fill="#333333"/>
<path d="M124.454 295.911C124.454 258.552 136.511 223.955 157.029 195.574L140.177 176.791C114.653 209.937 99.5639 251.232 99.5639 295.911C99.5639 369.662 140.671 434.021 201.732 468.134C203.072 459.364 204.764 450.871 206.95 442.791C157.311 411.923 124.454 357.715 124.454 295.911Z" fill="#333333"/>
<path d="M301.923 97.647C270.828 97.647 241.355 104.552 215.055 116.775L227.465 138.044C250.098 127.755 275.341 122.023 301.923 122.023C328.434 122.023 353.606 127.755 376.24 137.975L388.649 116.706C362.349 104.552 332.947 97.647 301.923 97.647Z" fill="#333333"/>
</svg>
